<svg xmlns="http://www.w3.org/2000/svg" width="30.296" height="24.193" viewBox="0 0 30.296 24.193"><defs><style>.a{fill:#2196f3;}.b{fill:#e0dddd;stroke:#e0dddd;}</style></defs><g transform="translate(0.566 0.559)"><path class="a" d="M.046,65.128a.609.609,0,0,1,.133-.664L11.14,53.5a.609.609,0,0,1,.861.861L2.079,64.287H28.621a.609.609,0,0,1,0,1.218H2.079L12,75.426a.609.609,0,1,1-.846.876l-.015-.015L.178,65.326A.61.61,0,0,1,.046,65.128Z" transform="translate(0 -53.333)"/><path class="b" d="M310.217,76.487a.609.609,0,0,0,.431-1.04l-10.531-10.53,10.531-10.53a.609.609,0,0,0-.861-.861L298.825,64.487a.609.609,0,0,0,0,.861l10.961,10.961A.608.608,0,0,0,310.217,76.487Z" transform="translate(-298.646 -53.354)"/><path class="b" d="M.609,246.431H28.621a.609.609,0,1,0,0-1.218H.609a.609.609,0,1,0,0,1.218Z" transform="translate(0 -234.259)"/></g></svg>